# Blender v2.79 (sub 0) OBJ File: ''
# www.blender.org
mtllib yinyang.mtl
o Cylinder.002_Cylinder.005
v -2.600000 -1.695566 -0.841086
v -2.600000 1.104434 -0.841086
v -2.435912 -1.695566 -0.824924
v -2.435912 1.104434 -0.824924
v -2.278130 -1.695566 -0.777062
v -2.278130 1.104434 -0.777062
v -2.132718 -1.695566 -0.699337
v -2.132718 1.104434 -0.699337
v -2.005263 -1.695566 -0.594737
v -2.005263 1.104434 -0.594737
v -1.900663 -1.695566 -0.467282
v -1.900663 1.104434 -0.467282
v -1.822938 -1.695566 -0.321870
v -1.822938 1.104434 -0.321870
v -1.775076 -1.695566 -0.164088
v -1.775076 1.104434 -0.164088
v -1.758914 -1.695566 -0.000000
v -1.758914 1.104434 -0.000000
v -1.775075 -1.695566 0.164088
v -1.775075 1.104434 0.164088
v -1.822938 -1.695566 0.321869
v -1.822938 1.104434 0.321869
v -1.900663 -1.695566 0.467282
v -1.900663 1.104434 0.467282
v -2.005263 -1.695566 0.594737
v -2.005263 1.104434 0.594737
v -2.132718 -1.695566 0.699337
v -2.132718 1.104434 0.699337
v -2.278131 -1.695566 0.777062
v -2.278131 1.104434 0.777062
v -2.435912 -1.695566 0.824924
v -2.435912 1.104434 0.824924
v -2.600000 -1.695566 0.841086
v -2.600000 1.104434 0.841086
v -2.764088 -1.695566 0.824924
v -2.764088 1.104434 0.824924
v -2.921870 -1.695566 0.777062
v -2.921870 1.104434 0.777062
v -3.067282 -1.695566 0.699337
v -3.067282 1.104434 0.699337
v -3.194738 -1.695566 0.594737
v -3.194738 1.104434 0.594737
v -3.299337 -1.695566 0.467282
v -3.299337 1.104434 0.467282
v -3.377062 -1.695566 0.321869
v -3.377062 1.104434 0.321869
v -3.424924 -1.695566 0.164087
v -3.424924 1.104434 0.164087
v -3.441086 -1.695566 -0.000001
v -3.441086 1.104434 -0.000001
v -3.424924 -1.695566 -0.164089
v -3.424924 1.104434 -0.164089
v -3.377061 -1.695566 -0.321870
v -3.377061 1.104434 -0.321870
v -3.299336 -1.695566 -0.467283
v -3.299336 1.104434 -0.467283
v -3.194736 -1.695566 -0.594738
v -3.194736 1.104434 -0.594738
v -3.067281 -1.695566 -0.699338
v -3.067281 1.104434 -0.699338
v -2.921868 -1.695566 -0.777062
v -2.921868 1.104434 -0.777062
v -2.764086 -1.695566 -0.824925
v -2.764086 1.104434 -0.824925
vn 0.0980 0.0000 -0.9952
vn 0.2903 0.0000 -0.9569
vn 0.4714 0.0000 -0.8819
vn 0.6344 0.0000 -0.7730
vn 0.7730 0.0000 -0.6344
vn 0.8819 0.0000 -0.4714
vn 0.9569 0.0000 -0.2903
vn 0.9952 0.0000 -0.0980
vn 0.9952 0.0000 0.0980
vn 0.9569 0.0000 0.2903
vn 0.8819 0.0000 0.4714
vn 0.7730 0.0000 0.6344
vn 0.6344 0.0000 0.7730
vn 0.4714 0.0000 0.8819
vn 0.2903 0.0000 0.9569
vn 0.0980 0.0000 0.9952
vn -0.0980 0.0000 0.9952
vn -0.2903 0.0000 0.9569
vn -0.4714 0.0000 0.8819
vn -0.6344 0.0000 0.7730
vn -0.7730 0.0000 0.6344
vn -0.8819 0.0000 0.4714
vn -0.9569 0.0000 0.2903
vn -0.9952 0.0000 0.0980
vn -0.9952 0.0000 -0.0980
vn -0.9569 0.0000 -0.2903
vn -0.8819 0.0000 -0.4714
vn -0.7730 0.0000 -0.6344
vn -0.6344 0.0000 -0.7730
vn -0.4714 0.0000 -0.8819
vn 0.0000 1.0000 0.0000
vn -0.2903 0.0000 -0.9569
vn -0.0980 0.0000 -0.9952
vn 0.0000 -1.0000 -0.0000
usemtl None
s off
f 1//1 2//1 4//1 3//1
f 3//2 4//2 6//2 5//2
f 5//3 6//3 8//3 7//3
f 7//4 8//4 10//4 9//4
f 9//5 10//5 12//5 11//5
f 11//6 12//6 14//6 13//6
f 13//7 14//7 16//7 15//7
f 15//8 16//8 18//8 17//8
f 17//9 18//9 20//9 19//9
f 19//10 20//10 22//10 21//10
f 21//11 22//11 24//11 23//11
f 23//12 24//12 26//12 25//12
f 25//13 26//13 28//13 27//13
f 27//14 28//14 30//14 29//14
f 29//15 30//15 32//15 31//15
f 31//16 32//16 34//16 33//16
f 33//17 34//17 36//17 35//17
f 35//18 36//18 38//18 37//18
f 37//19 38//19 40//19 39//19
f 39//20 40//20 42//20 41//20
f 41//21 42//21 44//21 43//21
f 43//22 44//22 46//22 45//22
f 45//23 46//23 48//23 47//23
f 47//24 48//24 50//24 49//24
f 49//25 50//25 52//25 51//25
f 51//26 52//26 54//26 53//26
f 53//27 54//27 56//27 55//27
f 55//28 56//28 58//28 57//28
f 57//29 58//29 60//29 59//29
f 59//30 60//30 62//30 61//30
f 4//31 2//31 64//31 62//31 60//31 58//31 56//31 54//31 52//31 50//31 48//31 46//31 44//31 42//31 40//31 38//31 36//31 34//31 32//31 30//31 28//31 26//31 24//31 22//31 20//31 18//31 16//31 14//31 12//31 10//31 8//31 6//31
f 61//32 62//32 64//32 63//32
f 63//33 64//33 2//33 1//33
f 1//34 3//34 5//34 7//34 9//34 11//34 13//34 15//34 17//34 19//34 21//34 23//34 25//34 27//34 29//34 31//34 33//34 35//34 37//34 39//34 41//34 43//34 45//34 47//34 49//34 51//34 53//34 55//34 57//34 59//34 61//34 63//34
o Cylinder_Cylinder.001
v 0.000000 -1.000000 -5.000000
v 0.000000 1.000000 -5.000000
v 0.975452 -1.000000 -4.903926
v 0.975452 1.000000 -4.903926
v 1.913417 -1.000000 -4.619398
v 1.913417 1.000000 -4.619398
v 2.777851 -1.000000 -4.157348
v 2.777851 1.000000 -4.157348
v 3.535534 -1.000000 -3.535534
v 3.535534 1.000000 -3.535534
v 4.157348 -1.000000 -2.777851
v 4.157348 1.000000 -2.777851
v 4.619398 -1.000000 -1.913417
v 4.619398 1.000000 -1.913417
v 4.903926 -1.000000 -0.975452
v 4.903926 1.000000 -0.975452
v 5.000000 -1.000000 -0.000000
v 5.000000 1.000000 -0.000000
v 4.903926 -1.000000 0.975451
v 4.903926 1.000000 0.975451
v 4.619398 -1.000000 1.913416
v 4.619398 1.000000 1.913416
v 4.157348 -1.000000 2.777851
v 4.157348 1.000000 2.777851
v 3.535534 -1.000000 3.535534
v 3.535534 1.000000 3.535534
v 2.777851 -1.000000 4.157348
v 2.777851 1.000000 4.157348
v 1.913416 -1.000000 4.619398
v 1.913416 1.000000 4.619398
v 0.975450 -1.000000 4.903926
v 0.975450 1.000000 4.903926
v -0.000002 -1.000000 5.000000
v -0.000002 1.000000 5.000000
v -0.975454 -1.000000 4.903926
v -0.975454 1.000000 4.903926
v -1.913419 -1.000000 4.619397
v -1.913419 1.000000 4.619397
v -2.777853 -1.000000 4.157347
v -2.777853 1.000000 4.157347
v -3.535536 -1.000000 3.535532
v -3.535536 1.000000 3.535532
v -4.157350 -1.000000 2.777848
v -4.157350 1.000000 2.777848
v -4.619399 -1.000000 1.913413
v -4.619399 1.000000 1.913413
v -4.903927 -1.000000 0.975447
v -4.903927 1.000000 0.975447
v -5.000000 -1.000000 -0.000005
v -5.000000 1.000000 -0.000005
v -4.903925 -1.000000 -0.975457
v -4.903925 1.000000 -0.975457
v -4.619395 -1.000000 -1.913422
v -4.619395 1.000000 -1.913422
v -4.157345 -1.000000 -2.777856
v -4.157345 1.000000 -2.777856
v -3.535529 -1.000000 -3.535538
v -3.535529 1.000000 -3.535538
v -2.777846 -1.000000 -4.157352
v -2.777846 1.000000 -4.157352
v -1.913410 -1.000000 -4.619401
v -1.913410 1.000000 -4.619401
v -0.975444 -1.000000 -4.903928
v -0.975444 1.000000 -4.903928
v 3.299337 0.999999 0.467282
v 3.299337 -1.000001 0.467282
v 2.600000 0.999999 -0.841086
v 2.600000 -1.000001 -0.841086
v 2.435914 0.999999 -0.824925
v 2.435914 -1.000001 -0.824925
v 2.278131 0.999999 -0.777062
v 2.278131 -1.000001 -0.777062
v 1.822938 0.999999 0.321869
v 1.822938 -1.000001 0.321869
v 1.900662 0.999999 0.467282
v 1.900662 -1.000001 0.467282
v 1.775075 0.999999 0.164087
v 1.775075 -1.000001 0.164087
v 2.005262 0.999999 0.594737
v 2.005262 -1.000001 0.594737
v 2.435912 0.999999 0.824924
v 2.435912 -1.000001 0.824924
v 2.600000 0.999999 0.841086
v 2.600000 -1.000001 0.841086
v 2.278130 0.999999 0.777062
v 2.278130 -1.000001 0.777062
v 3.424924 0.999999 -0.164088
v 3.424924 -1.000001 -0.164088
v 3.067282 0.999999 -0.699337
v 3.067282 -1.000001 -0.699337
v 3.441086 0.999999 -0.000000
v 3.441086 -1.000001 -0.000000
v 3.377061 0.999999 -0.321870
v 3.377061 -1.000001 -0.321870
v 2.764087 0.999999 0.824924
v 2.764087 -1.000001 0.824924
v 2.005263 0.999999 -0.594738
v 2.005263 -1.000001 -0.594738
v 2.132719 0.999999 -0.699338
v 2.132719 -1.000001 -0.699338
v 1.900663 0.999999 -0.467283
v 1.900663 -1.000001 -0.467283
v 3.424924 0.999999 0.164088
v 3.424924 -1.000001 0.164088
v 3.067282 0.999999 0.699337
v 3.067282 -1.000001 0.699337
v 3.194737 0.999999 0.594737
v 3.194737 -1.000001 0.594737
v 3.377062 0.999999 0.321869
v 3.377062 -1.000001 0.321869
v 1.758914 0.999999 -0.000001
v 1.758914 -1.000001 -0.000001
v 2.132717 0.999999 0.699337
v 2.132717 -1.000001 0.699337
v 1.775076 0.999999 -0.164089
v 1.775076 -1.000001 -0.164089
v 3.194737 0.999999 -0.594737
v 3.194737 -1.000001 -0.594737
v 2.921869 0.999999 0.777062
v 2.921869 -1.000001 0.777062
v 3.299337 0.999999 -0.467282
v 3.299337 -1.000001 -0.467282
v 1.822938 0.999999 -0.321870
v 1.822938 -1.000001 -0.321870
v 2.921870 0.999999 -0.777062
v 2.921870 -1.000001 -0.777062
v 2.764088 0.999999 -0.824924
v 2.764088 -1.000001 -0.824924
vn 0.0980 0.0000 -0.9952
vn 0.2903 0.0000 -0.9569
vn 0.4714 0.0000 -0.8819
vn 0.6344 0.0000 -0.7730
vn 0.7730 0.0000 -0.6344
vn 0.8819 0.0000 -0.4714
vn 0.9569 0.0000 -0.2903
vn 0.9952 0.0000 -0.0980
vn 0.9952 0.0000 0.0980
vn 0.9569 0.0000 0.2903
vn 0.8819 0.0000 0.4714
vn 0.7730 0.0000 0.6344
vn 0.6344 0.0000 0.7730
vn 0.4714 0.0000 0.8819
vn 0.2903 0.0000 0.9569
vn 0.0980 0.0000 0.9952
vn -0.0980 0.0000 0.9952
vn -0.2903 0.0000 0.9569
vn -0.4714 0.0000 0.8819
vn -0.6344 0.0000 0.7730
vn -0.7730 0.0000 0.6344
vn -0.8819 0.0000 0.4714
vn -0.9569 0.0000 0.2903
vn -0.9952 0.0000 0.0980
vn -0.9952 0.0000 -0.0980
vn -0.9569 0.0000 -0.2903
vn -0.8819 0.0000 -0.4714
vn -0.7730 0.0000 -0.6344
vn -0.6344 0.0000 -0.7730
vn -0.4714 0.0000 -0.8819
vn 0.0000 1.0000 0.0000
vn -0.2903 0.0000 -0.9569
vn -0.0980 0.0000 -0.9952
vn -0.0000 -1.0000 -0.0000
usemtl None
s off
f 65//35 66//35 68//35 67//35
f 67//36 68//36 70//36 69//36
f 69//37 70//37 72//37 71//37
f 71//38 72//38 74//38 73//38
f 73//39 74//39 76//39 75//39
f 75//40 76//40 78//40 77//40
f 77//41 78//41 80//41 79//41
f 79//42 80//42 82//42 81//42
f 81//43 82//43 84//43 83//43
f 83//44 84//44 86//44 85//44
f 85//45 86//45 88//45 87//45
f 87//46 88//46 90//46 89//46
f 89//47 90//47 92//47 91//47
f 91//48 92//48 94//48 93//48
f 93//49 94//49 96//49 95//49
f 95//50 96//50 98//50 97//50
f 97//51 98//51 100//51 99//51
f 99//52 100//52 102//52 101//52
f 101//53 102//53 104//53 103//53
f 103//54 104//54 106//54 105//54
f 105//55 106//55 108//55 107//55
f 107//56 108//56 110//56 109//56
f 109//57 110//57 112//57 111//57
f 111//58 112//58 114//58 113//58
f 113//59 114//59 116//59 115//59
f 115//60 116//60 118//60 117//60
f 117//61 118//61 120//61 119//61
f 119//62 120//62 122//62 121//62
f 121//63 122//63 124//63 123//63
f 123//64 124//64 126//64 125//64
f 68//65 66//65 128//65 126//65 124//65 122//65 120//65 118//65 116//65 114//65 112//65 175//65 179//65 187//65 165//65 161//65 163//65 135//65 133//65 131//65 191//65 189//65 153//65 181//65 185//65 157//65 151//65 155//65 82//65 80//65 78//65 76//65 74//65 72//65 70//65
f 125//66 126//66 128//66 127//66
f 127//67 128//67 66//67 65//67
f 65//68 67//68 69//68 71//68 73//68 75//68 77//68 79//68 81//68 156//68 152//68 158//68 186//68 182//68 154//68 190//68 192//68 132//68 134//68 136//68 164//68 162//68 166//68 188//68 180//68 176//68 111//68 113//68 115//68 117//68 119//68 121//68 123//68 125//68 127//68
f 168//59 167//59 155//59 156//59
f 172//62 171//62 129//62 130//62
f 130//61 129//61 173//61 174//61
f 180//43 179//43 175//43 176//43
f 152//57 151//57 157//57 158//57
f 156//58 155//58 151//58 152//58
f 186//55 185//55 181//55 182//55
f 132//50 131//50 133//50 134//50
f 146//35 145//35 147//35 148//35
f 166//45 165//45 187//45 188//45
f 148//67 147//67 159//67 160//67
f 134//49 133//49 135//49 136//49
f 182//54 181//54 153//54 154//54
f 178//37 177//37 149//37 150//37
f 82//65 155//65 167//65 173//65 129//65 171//65 169//65 183//65 159//65 147//65 145//65 149//65 177//65 143//65 139//65 137//65 141//65 175//65 112//65 110//65 108//65 106//65 104//65 102//65 100//65 98//65 96//65 94//65 92//65 90//65 88//65 86//65 84//65
f 154//53 153//53 189//53 190//53
f 170//63 169//63 171//63 172//63
f 164//47 163//47 161//47 162//47
f 188//44 187//44 179//44 180//44
f 184//64 183//64 169//64 170//64
f 144//38 143//38 177//38 178//38
f 138//40 137//40 139//40 140//40
f 192//51 191//51 131//51 132//51
f 158//56 157//56 185//56 186//56
f 176//42 175//42 141//42 142//42
f 174//60 173//60 167//60 168//60
f 150//36 149//36 145//36 146//36
f 136//48 135//48 163//48 164//48
f 190//52 189//52 191//52 192//52
f 160//66 159//66 183//66 184//66
f 142//41 141//41 137//41 138//41
f 162//46 161//46 165//46 166//46
f 111//68 176//68 142//68 138//68 140//68 144//68 178//68 150//68 146//68 148//68 160//68 184//68 170//68 172//68 130//68 174//68 168//68 156//68 81//68 83//68 85//68 87//68 89//68 91//68 93//68 95//68 97//68 99//68 101//68 103//68 105//68 107//68 109//68
f 140//39 139//39 143//39 144//39
